/* XPM */
static char * D:\share2\mast_name_xpm[] = {
"160 30 13 1",
" 	c None",
".	c #32187B",
"+	c #31177B",
"@	c #31177A",
"#	c #31187A",
"$	c #32177A",
"%	c #32187A",
"&	c #31187B",
"*	c #32177B",
"=	c #321779",
"-	c #311879",
";	c #30177B",
">	c #321879",
"                                                                                                                                                                ",
"                                                                                                                                                                ",
"       .......+            @.......             +.......+                 .#$%&%%#@         ......................                                              ",
"       ........            @.......             .........               .............%@     ......................                                              ",
"       ........            ........             .........              *...............     ......................                                              ",
"       .........          #........            #.........#            $................     ......................                                              ",
"       .........          .........            %.........%            .................     ......................                                              ",
"       .........@        *.........            ...........           &.....*       #&..             ......                                                      ",
"       .........%        ..........           $.....@.....$          %.....           #             ......           ......#&$                                  ",
"       ......#...$      =...#......           ...... ......          &.....                         ......           ..........@                                ",
"       ...... ...*      $... ......          %.....& %.....%         @.....                         ......          +..=     ...                                ",
"       ...... *...      ...% ......          @.....   .....@         &.....$+                       ......          #..       ..@                               ",
"       ...... #...%    &...* ......          .....&   %.....          ..........%$                  ......          &..       ...                               ",
"       ......  &...    ...#  ......         $.....@   &.....$         #............@&               ......          ..%       ...    ...  #%%+      &*%++-      ",
"       ......  $...&  @...$  ......         $.....     .....$          #..............$             ......          ..+       ..*    ..+@....+    #.......%     ",
"       ......   ...&  #...   ......         .....&     %.....            $.............@            ......         +..@       ..$   +....@       &.@@   #&.*    ",
"       ......   *...@;...%   ......        #.....&     @.....#              @&..........            ......         #..       +.#    #...        #.#      @..&   ",
"       ......    ...##...    ......        ......       ......                  $@......$           ......         &..      @..     &..@       #..        ..&   ",
"       ......    #......&    ......       $.....+       +.....$                   *.....$           ......         ..........&      ...        ..+        ..&   ",
"       ......    >......#    ......       .....................                    .....*           ......         ......@@#        ..+       -..         ..*   ",
"       ......     ......     ......       .....................      .             .....#           ......        +..=             +..-       %..         ..#   ",
"       ......     &....@     ......      .......................     ..#           ......           ......        #..              #..        &..         ..+   ",
"       ......      ....      ......      #.....................#     ....$+      %&.....$           ......        &..              &..        $..        @..    ",
"       ......                ......      .......................     ...................            ......        ..#              ..%        $..        ..#    ",
"       ......                ......     $.....$           $.....$    ..................+            ......        ..*              ..+        ...@      $.&     ",
"       ......                ......     &.....             .....&    .................%             ......       +..+             +..@         *.#+   +@..      ",
"       ......                ......     .....@             @.....     $%............#$              ......       #..              #..           +.......@       ",
"       ......                ......    &.....%             %.....&        &$+&#@*#&                 ......       &..              &..            @%@..#         ",
"                                                                                                                                                                ",
"                                                                                                                                                                "};
